<svg id="logosandtypes_com" xmlns="http://www.w3.org/2000/svg" viewBox="0 0 150 150"><style>.st1{fill:#039}</style><path d="M0 0h150v150H0V0z" fill="none" id="Layer_3"/><g id="sage"><path class="st1" d="M74.7 13.5c-22.4 0-40.6 27.1-40.6 60.1s18.2 60.1 40.6 60.1 40.6-27.1 40.6-60.1S97 13.5 74.7 13.5m0-3.6c27.1 0 50.3 28.8 50.3 63.9s-23 64.1-50.3 64.1S24 109.2 24 73.9s22.3-64 50.3-64"/><path class="st1" d="M105.8 56.1c-.6-11.9-13.2-30.3-29.8-30.9v32.4h28.3c.7 0 1.4-.5 1.4-1.3.1 0 .1-.1.1-.2"/><path class="st1" d="M105.8 91.4c0-.7-.3-1.3-.8-1.8L72.6 57.2V25.1c-16.7.7-29 19.2-29.7 31.1-.1.7.2 1.4.7 1.9L76 90.7v32c16.8-.6 29.4-19.5 29.8-31.3"/><path class="st1" d="M42.9 91.9c.7 11.9 13.2 30.2 29.7 30.9V90.3H44.3c-.7-.1-1.3.5-1.4 1.2v.4"/></g></svg>